<?xml version="1.0" encoding="UTF-8"?>
<svg id="Layer_1" data-name="Layer 1" xmlns="http://www.w3.org/2000/svg" viewBox="0 0 2304.88 507.88">
  <defs>
    <style>
      .cls-1 {
        fill: #3ee6a8;
        stroke-width: 0px;
      }
    </style>
  </defs>
  <g>
    <path class="cls-1" d="M738.44,249.9c0-77.52,53.04-129.19,132.25-129.19,23.11,0,43.85,5.1,61.53,15.98v43.86c-14.28-12.58-35.36-20.06-60.86-20.06-49.97,0-83.29,35.7-83.29,89.41s33.32,89.41,83.29,89.41c25.5,0,46.58-7.48,60.86-20.06v43.86c-17.68,10.88-38.42,15.98-61.53,15.98-79.22,0-132.25-51.68-132.25-129.19Z"/>
    <path class="cls-1" d="M1122.25,192.44v183.25h-44.54l-1.02-26.18c-12.24,19.04-33.32,29.58-55.76,29.58-37.73,0-63.24-22.78-63.24-56.78s30.94-58.48,77.86-58.48c12.58,0,26.52,1.36,40.46,4.08v-39.1h-106.75v-36.38h152.99ZM1076.01,299.19c-11.9-2.38-24.14-3.74-34.68-3.74-21.42,0-35.69,10.2-35.69,25.84s9.86,24.82,28.56,24.82c21.42,0,41.48-17,41.82-46.92Z"/>
    <path class="cls-1" d="M1169.48,110.51h46.24v227.1h34.33v38.08h-80.57V110.51Z"/>
    <path class="cls-1" d="M1278.95,110.51h46.24v227.1h34.33v38.08h-80.57V110.51Z"/>
    <path class="cls-1" d="M1625.03,124.1v251.59h-47.94v-108.45h-134.63v108.45h-47.94V124.1h47.94v103.69h134.63v-103.69h47.94Z"/>
    <path class="cls-1" d="M1884.74,375.69l-11.9-13.94c-20.06,11.22-43.86,17.34-71.06,17.34-79.21,0-132.25-51.68-132.25-129.19s53.04-129.19,132.25-129.19,131.91,51.68,131.91,129.19c0,34.34-10.2,63.24-28.56,85.34l36.38,40.46h-56.78ZM1843.6,328.77l-41.48-47.59h54.4l15.98,18.02c7.48-13.94,11.56-30.6,11.56-49.3,0-53.72-32.98-89.41-82.28-89.41s-82.61,35.7-82.61,89.41,33.32,89.41,82.61,89.41c15.98,0,29.92-3.74,41.82-10.54Z"/>
    <path class="cls-1" d="M1955.42,348.83c0-16.66,13.59-30.26,30.26-30.26s30.26,13.6,30.26,30.26-13.6,30.26-30.26,30.26-30.26-13.6-30.26-30.26Z"/>
    <path class="cls-1" d="M2207.34,192.44v183.25h-44.54l-1.02-26.18c-12.24,19.04-33.32,29.58-55.76,29.58-37.73,0-63.24-22.78-63.24-56.78s30.94-58.48,77.86-58.48c12.58,0,26.52,1.36,40.46,4.08v-39.1h-106.75v-36.38h152.99ZM2161.1,299.19c-11.9-2.38-24.14-3.74-34.68-3.74-21.42,0-35.69,10.2-35.69,25.84s9.86,24.82,28.56,24.82c21.42,0,41.48-17,41.82-46.92Z"/>
    <path class="cls-1" d="M2250.14,135.32c0-15.98,11.56-27.54,27.54-27.54s27.2,11.56,27.2,27.54-11.22,27.2-27.2,27.2-27.54-11.22-27.54-27.2ZM2254.57,192.44h46.24v183.25h-46.24v-183.25Z"/>
  </g>
  <g>
    <path class="cls-1" d="M129.79,314.08v-120.38c0-35.23,28.72-63.9,64.01-63.9h380.72C548.06,54.33,476.09,0,391.64,0h-197.84C86.98,0,0,86.87,0,193.7v120.38c0,106.83,86.98,193.8,193.8,193.8h197.84c84.34,0,156.42-54.33,182.88-129.79H193.8c-35.29,0-64.01-28.78-64.01-64.01ZM98.54,321.82c-37.49,0-67.88-30.39-67.88-67.83s30.39-67.88,67.88-67.88v135.71Z"/>
    <g>
      <rect class="cls-1" x="228.21" y="217.1" width="73.75" height="73.75" rx="17.79" ry="17.79"/>
      <rect class="cls-1" x="397.24" y="217.1" width="73.75" height="73.75" rx="17.79" ry="17.79"/>
    </g>
  </g>
</svg>